<svg id="calendar" xmlns="http://www.w3.org/2000/svg" width="508.471" height="520" viewBox="0 0 508.471 520">
  <g id="Group_35" data-name="Group 35">
    <path id="Path_9" data-name="Path 9" d="M181.822,270.033a11.8,11.8,0,0,0-11.8-11.792H128.832a11.8,11.8,0,0,0-11.8,11.792v41.181a11.8,11.8,0,0,0,11.8,11.8h41.187a11.8,11.8,0,0,0,11.8-11.8V270.033Z" transform="translate(1.871 16.848)" />
    <path id="Path_10" data-name="Path 10" d="M278.451,270.033a11.794,11.794,0,0,0-11.791-11.792H225.466a11.8,11.8,0,0,0-11.8,11.792v41.181a11.8,11.8,0,0,0,11.8,11.8h41.193a11.8,11.8,0,0,0,11.791-11.8Z" transform="translate(8.176 16.848)" />
    <path id="Path_11" data-name="Path 11" d="M375.085,270.033a11.8,11.8,0,0,0-11.8-11.792H322.1a11.8,11.8,0,0,0-11.8,11.792v41.181a11.8,11.8,0,0,0,11.8,11.8h41.187a11.8,11.8,0,0,0,11.8-11.8Z" transform="translate(14.48 16.848)" />
    <path id="Path_12" data-name="Path 12" d="M181.822,366.673a11.794,11.794,0,0,0-11.8-11.8H128.832a11.793,11.793,0,0,0-11.8,11.8v41.174a11.8,11.8,0,0,0,11.8,11.8h41.187a11.8,11.8,0,0,0,11.8-11.8V366.673Z" transform="translate(1.871 23.152)" />
    <path id="Path_13" data-name="Path 13" d="M278.451,366.673a11.793,11.793,0,0,0-11.791-11.8H225.466a11.794,11.794,0,0,0-11.8,11.8v41.174a11.8,11.8,0,0,0,11.8,11.8h41.193a11.8,11.8,0,0,0,11.791-11.8Z" transform="translate(8.176 23.152)" />
    <path id="Path_14" data-name="Path 14" d="M375.085,366.673a11.792,11.792,0,0,0-11.791-11.8H322.1a11.794,11.794,0,0,0-11.8,11.8v41.174a11.8,11.8,0,0,0,11.8,11.8h41.192a11.8,11.8,0,0,0,11.791-11.8V366.673Z" transform="translate(14.48 23.152)" />
    <path id="Path_15" data-name="Path 15" d="M468.623,54.368v62.9a51.376,51.376,0,0,1-51.492,51.342H384.649c-28.429,0-51.8-22.911-51.8-51.342V54.142H186.443V117.27c0,28.431-23.369,51.342-51.794,51.342H102.16A51.375,51.375,0,0,1,50.671,117.27v-62.9a46.822,46.822,0,0,0-45.26,46.576V469.581a46.844,46.844,0,0,0,46.61,46.887H467.272c25.705,0,46.61-21.187,46.61-46.887V100.943A46.821,46.821,0,0,0,468.623,54.368ZM453.536,446.625a20.152,20.152,0,0,1-20.15,20.151H85.02a20.152,20.152,0,0,1-20.15-20.151V256.211a20.153,20.153,0,0,1,20.15-20.155H433.385a20.153,20.153,0,0,1,20.15,20.155V446.625Z" transform="translate(-5.411 3.532)" />
    <path id="Path_16" data-name="Path 16" d="M97.21,138.423h32.13A17.651,17.651,0,0,0,147,120.775V17.654A17.655,17.655,0,0,0,129.339,0H97.21A17.655,17.655,0,0,0,79.55,17.654V120.775A17.65,17.65,0,0,0,97.21,138.423Z" transform="translate(-0.574)" />
    <path id="Path_17" data-name="Path 17" d="M362.117,138.423h32.129A17.649,17.649,0,0,0,411.9,120.775V17.654A17.652,17.652,0,0,0,394.246,0H362.117a17.655,17.655,0,0,0-17.659,17.654V120.775A17.65,17.65,0,0,0,362.117,138.423Z" transform="translate(16.709)" />
  </g>
</svg>
