<svg xmlns="http://www.w3.org/2000/svg" width="114.411" height="114.412" viewBox="0 0 114.411 114.412">
  <g id="delete" transform="translate(-0.185 511.815)">
    <path id="Path_19" data-name="Path 19" d="M10.43-511.5A13.323,13.323,0,0,0,2.447-506a13.089,13.089,0,0,0-.805,13.373c.783,1.61,1.588,2.46,18.941,19.835l18.136,18.18L20.582-436.452C3.229-419.054,2.424-418.2,1.642-416.594A13.118,13.118,0,0,0,6-399.666a13.089,13.089,0,0,0,13.373.805c1.61-.783,2.46-1.588,19.858-18.941l18.158-18.136L75.571-417.8c17.375,17.353,18.225,18.158,19.835,18.941a13.133,13.133,0,0,0,13.283-.738,13.1,13.1,0,0,0,4.45-17c-.783-1.61-1.588-2.46-18.941-19.858L76.063-454.61,94.2-472.79c17.353-17.375,18.158-18.225,18.941-19.835a13.118,13.118,0,0,0-4.361-16.928,13.187,13.187,0,0,0-13.373-.827c-1.61.783-2.348,1.476-19.835,18.963l-18.18,18.136L39.233-491.418c-17.4-17.353-18.248-18.158-19.858-18.941A13.386,13.386,0,0,0,10.43-511.5Z" transform="translate(0 0)" fill="#feb300"/>
  </g>
</svg>
