<svg id="google" xmlns="http://www.w3.org/2000/svg" width="150" height="150" viewBox="0 0 150 150">
  <path id="Path_3" data-name="Path 3" d="M321.1,213.577a74.81,74.81,0,0,0-1.318-14.008A4.4,4.4,0,0,0,315.467,196H246.395A4.392,4.392,0,0,0,242,200.393v26.367a4.392,4.392,0,0,0,4.395,4.394h35.439a39.356,39.356,0,0,1-8.824,11.612L297.847,267.6A74.433,74.433,0,0,0,321.1,213.577Z" transform="translate(-171.102 -138.577)" fill="#fff"/>
  <path id="Path_4" data-name="Path 4" d="M106.578,35.156a39.156,39.156,0,0,1,23.715,7.922,4.388,4.388,0,0,0,5.746-.408l18.754-18.754a4.4,4.4,0,0,0-.283-6.476,74.626,74.626,0,0,0-109.847,15.5l25.8,25.8a39.562,39.562,0,0,1,36.12-23.584Z" transform="translate(-31.578)" fill="#fff"/>
  <path id="Path_5" data-name="Path 5" d="M106.578,370.24a74.216,74.216,0,0,0,44.708-15l-25.3-25.3A39.37,39.37,0,0,1,70.458,311.5l-25.8,25.8A74.692,74.692,0,0,0,106.578,370.24Z" transform="translate(-31.578 -220.24)" fill="#fff"/>
  <path id="Path_6" data-name="Path 6" d="M35.8,180.506a31.628,31.628,0,0,1,0-12.659L8.221,140.271a74.026,74.026,0,0,0,0,67.81Z" transform="translate(0 -99.176)" fill="#fff"/>
</svg>
