<svg xmlns="http://www.w3.org/2000/svg" viewBox="0 0 519.947 520">
  <path id="home" d="M505.98,226.175l-.036-.036L293.826,14.028a47.861,47.861,0,0,0-67.7,0l-212.008,212c-.071.071-.143.147-.214.218a47.85,47.85,0,0,0,31.857,81.559q.732.072,1.476.071h8.454v156.1A56.089,56.089,0,0,0,111.719,520h82.988a15.236,15.236,0,0,0,15.234-15.234V382.382A25.589,25.589,0,0,1,235.5,356.821h48.948a25.589,25.589,0,0,1,25.561,25.561V504.765A15.233,15.233,0,0,0,325.247,520h82.988a56.089,56.089,0,0,0,56.03-56.022v-156.1H472.1a47.875,47.875,0,0,0,33.877-81.7Zm0,0"/>
</svg>
