<svg id="shopping-list" xmlns="http://www.w3.org/2000/svg" width="390" height="520" viewBox="0 0 390 520">
  <g id="Group_32" data-name="Group 32" transform="translate(97.5)">
    <g id="Group_31" data-name="Group 31">
      <path id="Path_7" data-name="Path 7" d="M338.75,32.5h-35.3a48.763,48.763,0,0,0-91.943,0H176.25A16.256,16.256,0,0,0,160,48.75v65A16.256,16.256,0,0,0,176.25,130h162.5A16.256,16.256,0,0,0,355,113.75v-65A16.256,16.256,0,0,0,338.75,32.5Z" transform="translate(-160)"/>
    </g>
  </g>
  <g id="Group_34" data-name="Group 34" transform="translate(0 65)">
    <g id="Group_33" data-name="Group 33">
      <path id="Path_8" data-name="Path 8" d="M421.5,64H389v48.75a48.81,48.81,0,0,1-48.75,48.75H177.75A48.809,48.809,0,0,1,129,112.75V64H96.5A32.554,32.554,0,0,0,64,96.5v390A32.144,32.144,0,0,0,96.5,519h325A32.144,32.144,0,0,0,454,486.5V96.5A32.144,32.144,0,0,0,421.5,64ZM254.255,351.755l-65,65a16.32,16.32,0,0,1-23.01,0l-32.5-32.5a16.248,16.248,0,1,1,22.977-22.978l21.027,21,53.495-53.5a16.259,16.259,0,0,1,23.01,22.978Zm0-130-65,65a16.321,16.321,0,0,1-23.01,0l-32.5-32.5a16.248,16.248,0,0,1,22.977-22.977l21.027,21,53.495-53.5a16.259,16.259,0,0,1,23.01,22.977ZM372.75,389h-65a16.25,16.25,0,1,1,0-32.5h65a16.25,16.25,0,0,1,0,32.5Zm0-130h-65a16.25,16.25,0,1,1,0-32.5h65a16.25,16.25,0,0,1,0,32.5Z" transform="translate(-64 -64)"/>
    </g>
  </g>
</svg>
