<?xml version="1.0" encoding="utf-8"?>
<!-- Generator: Adobe Illustrator 19.0.0, SVG Export Plug-In . SVG Version: 6.00 Build 0)  -->
<svg version="1.1" id="Layer_1" xmlns="http://www.w3.org/2000/svg" xmlns:xlink="http://www.w3.org/1999/xlink" x="0px" y="0px"
	 viewBox="0 0 512 512" fill="#ffffff" style="enable-background:new 0 0 512 512;" xml:space="preserve">
<g id="XMLID_1_">
	<path id="XMLID_3_" d="M277.4,0H256c-5.6,0-10.2,4.7-10.2,10.2v96.8c0,5.6,10.2,10.2,15.8,10.2h15.8c5.6,0,10.2-4.7,10.2-10.2V10.2
		C287.7,4.7,283,0,277.4,0z"/>
	<path id="XMLID_6_" d="M493.4,88.4l-69.8-69.8C411.5,6.5,394.7,0,377.9,0h-37.2c-12.1,0-21.4,9.3-21.4,21.4v107.1
		c0,12.1-9.3,21.4-21.4,21.4H128.5c-12.1,0-21.4-9.3-21.4-21.4V21.4C107.1,9.3,97.7,0,85.6,0H42.8C19.5,0,0,19.5,0,42.8v426.4
		C0,492.5,19.5,512,42.8,512h426.4c23.3,0,42.8-19.5,42.8-42.8V133.1C512,116.4,505.5,100.5,493.4,88.4z M344.4,447.8
		c0,12.1-10.2,21.4-23.3,21.4H107.1c-13,0-23.3-9.3-23.3-21.4V320.2c0-12.1,10.2-21.4,23.3-21.4h214.1c13,0,23.3,9.3,23.3,21.4
		V447.8z"/>
</g>
</svg>
